<?xml version="1.0" encoding="UTF-8"?>
<svg width="53px" height="53px" viewBox="0 0 53 53" version="1.1" xmlns="http://www.w3.org/2000/svg" xmlns:xlink="http://www.w3.org/1999/xlink">
    <!-- Generator: Sketch 47 (45396) - http://www.bohemiancoding.com/sketch -->
    <title>astronaut</title>
    <desc>Created with Sketch.</desc>
    <defs></defs>
    <g id="Page-1" stroke="none" stroke-width="1" fill="none" fill-rule="evenodd">
        <g id="Desktop" transform="translate(-69.000000, -67.000000)">
            <g id="header" transform="translate(-1.000000, 0.000000)">
                <g id="astronaut" transform="translate(70.000000, 67.000000)">
                    <circle id="Oval-3" fill="#CFF2EC" cx="26.5" cy="26.5" r="26.5"></circle>
                    <g id="Group" transform="translate(9.000000, 8.000000)">
                        <path d="M5.56779661,7.29853333 C5.1559322,4.69046667 6.45498305,2.34713333 8.4819661,1.26666667 L3.8599322,1.26666667 C2.73905085,1.26666667 1.83050847,2.2097 1.83050847,3.37313333 L1.83050847,10.5874333 C2.70549153,9.47023333 3.85627119,8.5766 5.20718644,8.0313 L5.6959322,7.83433333 C5.65016949,7.657 5.59708475,7.4822 5.56779661,7.29853333" id="Fill-1824" fill="#BDC3C7"></path>
                        <path d="M13.5109831,1.26666667 C15.0101695,2.07543333 16.1176271,3.59226667 16.3983051,5.3675 C16.5349831,6.232 16.4745763,7.0642 16.272,7.83496667 L16.7589153,8.0313 C17.8169492,8.45816667 18.7492881,9.10163333 19.5254237,9.8952 L19.5254237,3.37313333 C19.5254237,2.2097 18.6168814,1.26666667 17.496,1.26666667 L13.5109831,1.26666667" id="Fill-1825" fill="#BDC3C7"></path>
                        <path d="M17.0847458,25.3333333 L17.0847458,17.1 C17.0847458,16.7504 16.8113898,16.4666667 16.4745763,16.4666667 C16.1371525,16.4666667 15.8644068,16.1835667 15.8644068,15.8333333 C15.8644068,15.4831 16.1371525,15.2 16.4745763,15.2 C17.4837966,15.2 18.3050847,16.0524667 18.3050847,17.1 L18.3050847,20.9 L21.9661017,20.9 L21.9661017,15.9327667 C21.9661017,12.4361333 19.8982373,9.2986 16.7589153,8.0313 L16.272,7.83496667 C15.559322,10.5437333 12.9789153,12.4519667 10.0531525,11.9541667 C7.95355932,11.5963333 6.24447458,9.94143333 5.6959322,7.83433333 L5.20718644,8.0313 C2.06786441,9.2986 0,12.4361333 0,15.9321333 L0,20.9 L3.66101695,20.9 L3.66101695,17.1 C3.66101695,16.0524667 4.48230508,15.2 5.49152542,15.2 C5.82894915,15.2 6.10169492,15.4831 6.10169492,15.8333333 C6.10169492,16.1835667 5.82894915,16.4666667 5.49152542,16.4666667 C5.15471186,16.4666667 4.88135593,16.7504 4.88135593,17.1 L4.88135593,25.3333333 C4.88135593,25.6835667 4.60861017,25.9666667 4.27118644,25.9666667 L4.27118644,32.4976 C4.27118644,33.0878667 3.80989831,33.5666667 3.24122034,33.5666667 L1.91105085,33.5666667 C1.02508475,33.5666667 0.209288136,34.1822667 0.0366101695,35.0835 C-0.194644068,36.2944333 0.702915254,37.3666667 1.83050847,37.3666667 L7.93220339,37.3666667 C8.94325424,37.3666667 9.76271186,36.5161 9.76271186,35.4666667 L9.76271186,27.2333333 C9.76271186,26.6019 10.1745763,26.0122667 10.7743729,25.9077667 C11.5364746,25.7747667 12.2033898,26.3884667 12.2033898,27.1560667 L12.2033898,35.4666667 C12.2033898,36.5161 13.0228475,37.3666667 14.0338983,37.3666667 L20.055661,37.3666667 C20.9410169,37.3666667 21.7574237,36.7510667 21.9294915,35.8492 C22.1607458,34.6389 21.2631864,33.5666667 20.1355932,33.5666667 L18.7248814,33.5666667 C18.1562034,33.5666667 17.6949153,33.0878667 17.6949153,32.4976 L17.6949153,25.9666667 C17.3574915,25.9666667 17.0847458,25.6835667 17.0847458,25.3333333" id="Fill-1826" fill="#E6E6E6"></path>
                        <path d="M0.0555254237,22.1666667 C0.34840678,23.9571 1.85552542,25.3333333 3.66101695,25.3333333 L3.66101695,22.1666667 L0.0555254237,22.1666667" id="Fill-1827" fill="#E6E6E6"></path>
                        <path d="M18.3050847,25.3333333 C20.1105763,25.3333333 21.6176949,23.9571 21.9105763,22.1666667 L18.3050847,22.1666667 L18.3050847,25.3333333" id="Fill-1828" fill="#E6E6E6"></path>
                        <path d="M4.88135593,25.3333333 L4.88135593,17.1 C4.88135593,16.7504 5.15471186,16.4666667 5.49152542,16.4666667 C5.82894915,16.4666667 6.10169492,16.1835667 6.10169492,15.8333333 C6.10169492,15.4831 5.82894915,15.2 5.49152542,15.2 C4.48230508,15.2 3.66101695,16.0524667 3.66101695,17.1 L3.66101695,20.9 L0,20.9 L0,21.5333333 C0,21.7493 0.0213559322,21.9602 0.0555254237,22.1666667 L3.66101695,22.1666667 L3.66101695,25.3333333 L4.27118644,25.3333333 L4.27118644,25.9666667 C4.60861017,25.9666667 4.88135593,25.6835667 4.88135593,25.3333333" id="Fill-1829" fill="#BDC3C7"></path>
                        <path d="M21.9661017,20.9 L18.3050847,20.9 L18.3050847,17.1 C18.3050847,16.0524667 17.4837966,15.2 16.4745763,15.2 C16.1371525,15.2 15.8644068,15.4831 15.8644068,15.8333333 C15.8644068,16.1835667 16.1371525,16.4666667 16.4745763,16.4666667 C16.8113898,16.4666667 17.0847458,16.7504 17.0847458,17.1 L17.0847458,25.3333333 C17.0847458,25.6835667 17.3574915,25.9666667 17.6949153,25.9666667 L17.6949153,25.3333333 L18.3050847,25.3333333 L18.3050847,22.1666667 L21.9105763,22.1666667 C21.9447458,21.9602 21.9661017,21.7493 21.9661017,21.5333333 L21.9661017,20.9" id="Fill-1830" fill="#BDC3C7"></path>
                        <path d="M8.54237288,35.4666667 C8.54237288,35.8162667 8.26901695,36.1 7.93220339,36.1 C7.59538983,36.1 7.3220339,35.8162667 7.3220339,35.4666667 C7.3220339,35.1170667 7.59538983,34.8333333 7.93220339,34.8333333 C8.26901695,34.8333333 8.54237288,35.1170667 8.54237288,35.4666667" id="Fill-1966" fill="#556080"></path>
                        <path d="M6.71186441,35.4666667 C6.71186441,35.8162667 6.43850847,36.1 6.10169492,36.1 C5.76488136,36.1 5.49152542,35.8162667 5.49152542,35.4666667 C5.49152542,35.1170667 5.76488136,34.8333333 6.10169492,34.8333333 C6.43850847,34.8333333 6.71186441,35.1170667 6.71186441,35.4666667" id="Fill-1967" fill="#556080"></path>
                        <path d="M4.88135593,35.4666667 C4.88135593,35.8162667 4.608,36.1 4.27118644,36.1 C3.93437288,36.1 3.66101695,35.8162667 3.66101695,35.4666667 C3.66101695,35.1170667 3.93437288,34.8333333 4.27118644,34.8333333 C4.608,34.8333333 4.88135593,35.1170667 4.88135593,35.4666667" id="Fill-1968" fill="#556080"></path>
                        <path d="M18.3050847,35.4666667 C18.3050847,35.8162667 18.0317288,36.1 17.6949153,36.1 C17.3581017,36.1 17.0847458,35.8162667 17.0847458,35.4666667 C17.0847458,35.1170667 17.3581017,34.8333333 17.6949153,34.8333333 C18.0317288,34.8333333 18.3050847,35.1170667 18.3050847,35.4666667" id="Fill-1969" fill="#556080"></path>
                        <path d="M16.4745763,35.4666667 C16.4745763,35.8162667 16.2012203,36.1 15.8644068,36.1 C15.5275932,36.1 15.2542373,35.8162667 15.2542373,35.4666667 C15.2542373,35.1170667 15.5275932,34.8333333 15.8644068,34.8333333 C16.2012203,34.8333333 16.4745763,35.1170667 16.4745763,35.4666667" id="Fill-1970" fill="#556080"></path>
                        <path d="M14.6440678,35.4666667 C14.6440678,35.8162667 14.3707119,36.1 14.0338983,36.1 C13.6970847,36.1 13.4237288,35.8162667 13.4237288,35.4666667 C13.4237288,35.1170667 13.6970847,34.8333333 14.0338983,34.8333333 C14.3707119,34.8333333 14.6440678,35.1170667 14.6440678,35.4666667" id="Fill-1971" fill="#556080"></path>
                        <path d="M16.3983051,5.36813333 C17.0145763,9.26883333 13.8111864,12.5938333 10.0531525,11.9541667 C7.77722034,11.5665667 5.94122034,9.66086667 5.56779661,7.29853333 C4.95152542,3.39783333 8.15491525,0.0728333333 11.9129492,0.7125 C14.1888814,1.1001 16.0248814,3.0058 16.3983051,5.36813333" id="Fill-1972" fill="#FFFFFF"></path>
                        <path d="M10.9824407,12.6666667 C10.6413559,12.6666667 10.296,12.6369 9.95369492,12.5792667 C7.43125424,12.1492333 5.37986441,10.0199667 4.96616949,7.40113333 C4.67145763,5.53786667 5.16935593,3.65496667 6.33111864,2.23503333 C7.71437288,0.544666667 9.87071186,-0.272966667 12.0124068,0.0874 C14.5348475,0.517433333 16.5862373,2.6467 16.9999322,5.2649 C17.2946441,7.1288 16.7967458,9.0117 15.6349831,10.4316333 C14.4732203,11.8522 12.7769492,12.6666667 10.9824407,12.6666667 L10.9824407,12.6666667 Z M10.983661,1.26666667 C9.5479322,1.26666667 8.19152542,1.91836667 7.26040678,3.0552 C6.31769492,4.20786667 5.93023729,5.67846667 6.1700339,7.19593333 C6.50013559,9.28656667 8.13783051,10.9864333 10.152,11.3297 C11.8745085,11.6229333 13.5964068,10.9655333 14.7056949,9.61146667 C15.6484068,8.4588 16.0358644,6.9882 15.7960678,5.47073333 C15.4659661,3.3801 13.8282712,1.68023333 11.8141017,1.33696667 C11.5376949,1.2901 11.2582373,1.26666667 10.983661,1.26666667 L10.983661,1.26666667 Z" id="Fill-1973" fill="#ECF0F1"></path>
                        <path d="M14.6440678,16.15 C14.6440678,17.0246333 13.9612881,17.7333333 13.1186441,17.7333333 C12.276,17.7333333 11.5932203,17.0246333 11.5932203,16.15 C11.5932203,15.2753667 12.276,14.5666667 13.1186441,14.5666667 C13.9612881,14.5666667 14.6440678,15.2753667 14.6440678,16.15" id="Fill-1974" fill="#9777A8"></path>
                        <path d="M10.3728814,19.3166667 C10.3728814,20.1913 9.69010169,20.9 8.84745763,20.9 C8.00481356,20.9 7.3220339,20.1913 7.3220339,19.3166667 C7.3220339,18.4420333 8.00481356,17.7333333 8.84745763,17.7333333 C9.69010169,17.7333333 10.3728814,18.4420333 10.3728814,19.3166667" id="Fill-1975" fill="#F18D46"></path>
                        <path d="M24.4067797,38 C24.0693559,38 23.7966102,37.7169 23.7966102,37.3666667 L23.7966102,1.9 C23.7966102,1.54976667 24.0693559,1.26666667 24.4067797,1.26666667 C24.7442034,1.26666667 25.0169492,1.54976667 25.0169492,1.9 L25.0169492,37.3666667 C25.0169492,37.7169 24.7442034,38 24.4067797,38" id="Fill-1976" fill="#556080"></path>
                        <path d="M24.4067797,3.16666667 C24.0693559,3.16666667 23.7966102,2.88356667 23.7966102,2.53333333 L23.7966102,1.26666667 C23.7966102,0.916433333 24.0693559,0.633333333 24.4067797,0.633333333 C24.7442034,0.633333333 25.0169492,0.916433333 25.0169492,1.26666667 L25.0169492,2.53333333 C25.0169492,2.88356667 24.7442034,3.16666667 24.4067797,3.16666667" id="Fill-1977" fill="#556080"></path>
                        <path d="M16.4745763,6.33333333 C16.4745763,8.08196667 14.0162034,9.5 10.9830508,9.5 C7.94989831,9.5 5.49152542,8.08196667 5.49152542,6.33333333 C5.49152542,3.12676667 7.94989831,3.8 10.9830508,3.8 C14.0162034,3.8 16.4745763,3.2851 16.4745763,6.33333333" id="Fill-1978" fill="#8697CB"></path>
                        <polygon id="Fill-1979" fill="#556080" points="14.6440678 5.7 16.4745763 5.7 16.4745763 6.96666667 14.6440678 6.96666667"></polygon>
                        <polygon id="Fill-1980" fill="#556080" points="5.49152542 5.7 7.3220339 5.7 7.3220339 6.96666667 5.49152542 6.96666667"></polygon>
                        <path d="M4.27118644,26.6 L4.27118644,31.6666667 C5.61905085,31.6666667 6.71186441,30.5323667 6.71186441,29.1333333 C6.71186441,27.7343 5.61905085,26.6 4.27118644,26.6" id="Fill-1988" fill="#8697CB"></path>
                        <path d="M15.2542373,29.1333333 C15.2542373,30.5323667 16.3470508,31.6666667 17.6949153,31.6666667 L17.6949153,26.6 C16.3470508,26.6 15.2542373,27.7343 15.2542373,29.1333333" id="Fill-1989" fill="#8697CB"></path>
                        <path d="M0,15.1518667 L0,19.6333333 L1.48881356,18.5294333 C1.99220339,18.1564 2.06847458,17.4109667 1.65172881,16.9366 C1.18433898,16.4052333 0.460677966,15.7237667 0,15.1518667" id="Fill-1990" fill="#8697CB"></path>
                        <path d="M21.9661017,15.1518667 C21.5054237,15.7237667 20.7823729,16.4052333 20.3143729,16.9366 C19.8976271,17.4109667 19.9738983,18.1564 20.4772881,18.5294333 L21.9661017,19.6333333 L21.9661017,15.1518667" id="Fill-1991" fill="#8697CB"></path>
                        <polygon id="Fill-2073" fill="#E6E7E8" points="25.0169492 2.53333333 35.9755932 2.53333333 35.9755932 13.9301667 25.0169492 13.9301667"></polygon>
                        <polygon id="Fill-2074" fill="#E64C3C" points="25.0169492 12.6666667 35.9755932 12.6666667 35.9755932 13.9333333 25.0169492 13.9333333"></polygon>
                        <polygon id="Fill-2075" fill="#E64C3C" points="25.0169492 10.1333333 35.9755932 10.1333333 35.9755932 11.4 25.0169492 11.4"></polygon>
                        <polygon id="Fill-2076" fill="#E64C3C" points="30.5188475 2.53333333 35.9755932 2.53333333 35.9755932 3.8 30.5188475 3.8"></polygon>
                        <polygon id="Fill-2077" fill="#E64C3C" points="30.5188475 5.06666667 35.9755932 5.06666667 35.9755932 6.33333333 30.5188475 6.33333333"></polygon>
                        <polygon id="Fill-2078" fill="#E64C3C" points="30.5188475 7.6 35.9755932 7.6 35.9755932 8.86666667 30.5188475 8.86666667"></polygon>
                        <polygon id="Fill-2079" fill="#3B97D3" points="25.0169492 2.53333333 30.5371525 2.53333333 30.5371525 8.89516667 25.0169492 8.89516667"></polygon>
                    </g>
                </g>
            </g>
        </g>
    </g>
</svg>